<svg width="20" height="20" viewBox="0 0 20 20" fill="none" xmlns="http://www.w3.org/2000/svg">
<path d="M5 2.5H2.5V5" stroke="currentColor" stroke-width="1.5" stroke-linecap="round" stroke-linejoin="round"/>
<path d="M9.99992 11.6667C10.9204 11.6667 11.6666 10.9205 11.6666 10C11.6666 9.07953 10.9204 8.33334 9.99992 8.33334C9.07944 8.33334 8.33325 9.07953 8.33325 10C8.33325 10.9205 9.07944 11.6667 9.99992 11.6667Z" stroke="currentColor" stroke-width="1.5" stroke-linecap="round" stroke-linejoin="round"/>
<path d="M17.5 10C15.9262 12.4925 13.0986 15 10 15C6.90141 15 4.0738 12.4925 2.5 10C4.41546 7.63187 6.65969 5 10 5C13.3403 5 15.5846 7.63183 17.5 10Z" stroke="currentColor" stroke-width="1.5" stroke-linecap="round" stroke-linejoin="round"/>
<path d="M15 2.5H17.5V5" stroke="currentColor" stroke-width="1.5" stroke-linecap="round" stroke-linejoin="round"/>
<path d="M5 17.5H2.5V15" stroke="currentColor" stroke-width="1.5" stroke-linecap="round" stroke-linejoin="round"/>
<path d="M15 17.5H17.5V15" stroke="currentColor" stroke-width="1.5" stroke-linecap="round" stroke-linejoin="round"/>
</svg>
