<svg width="288" height="91" viewBox="0 0 288 91" fill="none" xmlns="http://www.w3.org/2000/svg">
<path fill-rule="evenodd" clip-rule="evenodd" d="M43.0337 59.034C30.5612 59.034 24.7286 51.5093 27.9928 39.8614C31.1968 28.4197 42.1145 20.328 54.8963 20.328C67.678 20.328 73.3731 28.162 70.212 39.4491C66.9393 51.1485 56.0731 59.034 43.0337 59.034ZM64.8348 40.0675C67.7639 29.6051 63.0309 22.3896 54.1146 22.3896C44.786 22.3896 36.1789 29.1928 33.3529 39.2945C30.4839 49.5508 35.3715 56.7663 44.7001 56.7663C53.8226 56.7663 62.0173 50.1177 64.8348 40.0675ZM76.7403 43.5722C77.6337 40.3768 77.8055 39.3975 76.7747 39.3975C76.3109 39.3975 75.5034 39.7068 74.988 39.7068C74.7819 39.7068 74.6444 39.4491 74.7904 38.9337C74.9622 38.3152 75.4519 38.4183 78.1577 37.7483C80.5371 37.1813 82.0575 36.3567 82.5729 36.3567C82.779 36.3567 83.4319 36.769 83.346 37.0783C83.303 37.2329 82.8563 38.1091 82.3238 39.8098L84.9007 38.5214C87.598 37.1813 89.3073 36.4083 90.3897 36.4083C93.8943 36.4083 96.9437 40.4283 95.1399 46.8707C93.0783 54.2408 87.0912 58.8794 80.0818 58.8794C78.8449 58.8794 77.6079 58.6732 76.4053 58.364L74.0174 66.9195L70.2979 68.7749C70.1777 68.8322 70.066 68.8666 69.9629 68.878C69.7052 68.878 69.7052 68.6718 69.8513 68.1565L76.7403 43.5722ZM80.4941 57.2301C84.978 57.2301 88.7834 53.777 90.467 47.7469C91.8929 42.6445 90.1835 40.1191 86.2665 40.1191C84.8234 40.1191 83.2858 40.6345 81.6194 41.6137C80.2049 45.9316 78.6759 50.845 77.0324 56.354C77.9859 56.9724 79.1026 57.2301 80.4941 57.2301ZM102.227 47.18C102.433 46.4584 103.077 44.0876 104.159 40.0675H102.716C102.304 40.0675 102.218 40.016 102.347 39.5522C102.519 38.9337 102.793 38.8821 103.309 38.5214L110.602 33.2644C111.066 32.9036 111.392 32.6459 111.701 32.6459C111.907 32.6459 112.113 32.852 112.036 33.1097C111.942 33.4705 110.533 34.8105 109.485 37.439H117.061C117.525 37.439 117.594 37.7483 117.362 38.5729C117.044 39.7068 116.889 39.7068 115.704 39.7068H108.54C107.389 42.9022 106.504 45.6853 105.869 47.9531C104.331 53.4678 104.821 56.3024 108.841 56.3024C111.315 56.3024 113.273 55.0139 113.943 55.0139C114.098 55.0139 114.149 55.2201 114.098 55.3747L114.003 55.7355C113.642 57.024 108.635 58.8794 105.285 58.8794C102.656 58.8794 100.543 57.9517 99.5894 56.4055C100.895 51.9216 101.763 48.8292 102.227 47.18ZM121.451 47.18C121.657 46.4584 122.301 44.0876 123.383 40.0675H121.94C121.528 40.0675 121.442 40.016 121.571 39.5522C121.743 38.9337 122.018 38.8821 122.533 38.5214L129.826 33.2644C130.29 32.9036 130.616 32.6459 130.925 32.6459C131.131 32.6459 131.338 32.852 131.26 33.1097C131.166 33.4705 129.757 34.8105 128.709 37.439H136.285C136.749 37.439 136.818 37.7483 136.586 38.5729C136.268 39.7068 136.114 39.7068 134.928 39.7068H127.764C126.613 42.9022 125.728 45.6853 125.093 47.9531C123.555 53.4678 124.045 56.3024 128.065 56.3024C130.539 56.3024 132.497 55.0139 133.167 55.0139C133.322 55.0139 133.373 55.2201 133.322 55.3747L133.227 55.7355C132.867 57.024 127.859 58.8794 124.509 58.8794C121.88 58.8794 119.767 57.9517 118.814 56.4055C120.119 51.9216 120.987 48.8292 121.451 47.18ZM143.157 56.354C143.011 56.8694 142.882 57.127 142.857 57.2301C142.728 57.694 142.444 57.9517 141.877 58.1578C139.962 58.7248 138.716 59.1371 138.665 59.1371C138.252 59.1371 138.51 58.2094 139.017 56.4055L142.496 43.9845C143.286 41.1499 143.638 39.7068 141.834 39.7068C141.319 39.7068 140.769 40.016 140.46 40.016C140.099 40.016 139.945 39.6552 140.099 39.0883C140.263 38.5214 141.345 38.5214 143.647 37.8514C146.284 37.0783 147.77 36.3567 148.182 36.3567C148.492 36.3567 148.895 36.769 148.792 37.1298C148.681 37.5421 147.701 40.1191 146.344 44.9638L143.157 56.354ZM151.704 48.8292C153.714 41.6653 159.736 36.3567 166.075 36.3567C169.425 36.3567 172.423 37.7998 172.277 38.3152C172.088 38.9852 169.932 42.0776 169.623 42.0776C169.004 42.0776 166.676 39.5522 162.862 39.5522C159.512 39.5522 156.953 41.8714 155.802 45.9946C154.324 51.2516 155.991 55.0655 160.938 55.0655C163.412 55.0655 165.439 54.447 167.381 52.8493C168.781 51.7154 169.133 50.6331 169.803 50.6331C170.215 50.6331 170.439 50.9423 170.344 51.3031C170.25 51.6123 168.858 53.4678 166.109 56.0963C163.867 58.2094 162.373 58.7763 159.074 58.7763C152.323 58.7763 149.857 55.4263 151.704 48.8292ZM171.847 58.0548C171.255 57.7971 171.401 57.2817 171.813 55.787L172.019 55.0655C172.595 53.0039 172.818 52.3854 173.643 52.3854C174.158 52.3854 174.313 52.5916 174.21 52.9524L174.107 53.3131C173.402 55.8386 174.639 57.1271 177.783 57.1271C182.679 57.1271 186.768 54.2924 187.472 51.767C187.893 50.2723 187.052 49.6023 184.99 49.6023H182.413C177.826 49.6023 175.996 48.2108 177.053 44.4484C178.307 39.9645 182.86 36.4083 188.065 36.4083C191.003 36.4083 193.039 37.2329 192.893 37.7483C192.635 38.676 191.639 40.2222 191.175 40.2222C190.556 40.2222 189.216 38.9337 185.866 38.9337C183.032 38.9337 181.013 40.4283 180.463 42.3868C179.742 44.9638 181.889 45.2215 185.626 45.4792C190.376 45.8399 193.03 46.6646 191.802 51.0454C190.505 55.6839 185.213 58.9309 178.256 58.9309C174.699 58.9309 172.397 58.3125 171.847 58.0548ZM214.677 36.3567C218.8 36.3567 219.951 39.6037 218.164 45.9946C217.66 47.787 216.664 50.7934 215.175 55.0139C216.635 54.3955 217.623 53.9832 218.293 53.9832C218.499 53.9832 218.473 54.0862 218.413 54.2924L218.327 54.6016C218.027 55.6839 217.674 55.2716 214.393 56.5086C211.206 57.7455 209.437 58.9309 209.179 58.9309C208.715 58.9309 208.466 58.5186 208.552 58.2094C208.672 57.7971 211.223 56.9724 213.139 50.1177C215.046 43.3145 215.209 39.6037 210.364 39.6037C208.612 39.6037 206.722 40.2737 205.245 41.3045C204.472 41.8714 204.145 42.8507 203.716 44.3968L200.28 56.6632C200.048 57.4878 199.722 57.5394 198.914 57.8486C197.357 58.4671 196.429 58.7763 196.131 58.7763C195.925 58.7763 195.959 58.4671 196.114 57.9001L204.403 28.3166C204.635 27.492 204.755 26.8735 204.824 26.6158C205.374 24.6573 205.382 24.0904 204.249 24.0904C203.424 24.0904 202.771 24.1934 202.307 24.1934C201.946 24.1934 201.861 24.1419 201.964 23.7811C202.221 22.8534 202.797 23.008 205.004 22.4927C208.535 21.668 210.227 20.9465 210.433 20.9465C210.691 20.9465 210.992 21.3588 210.863 21.8226C210.768 22.1319 209.239 24.6573 207.006 32.6459L204.979 39.8614C208.99 37.6967 212.1 36.3567 214.677 36.3567ZM232.836 55.4263C235.876 55.4263 238.058 54.447 240.506 52.3339C241.537 51.4062 241.984 50.7362 242.448 50.7362C242.808 50.7362 243.032 51.0454 242.929 51.4062C242.774 51.9731 241.056 54.0347 237.629 57.0755C236.186 58.364 235.413 58.9309 231.083 58.9309C224.383 58.9309 221.763 55.2201 223.584 48.7261C225.543 41.7168 231.839 36.3567 237.405 36.3567C241.219 36.3567 243.161 38.6244 242.181 42.1291C241.64 44.0361 236.727 46.51 227.845 48.7777C227.132 53.1585 228.867 55.4263 232.836 55.4263ZM237.766 41.3045C238.221 39.7068 237.362 38.5214 235.662 38.5214C232.879 38.5214 229.7 41.4076 228.532 45.5822C228.489 45.7369 228.377 46.1492 228.223 46.8707C233.42 46.3553 237.002 44.0361 237.766 41.3045ZM252.738 35.3259C253.331 33.2128 253.718 31.6666 254.018 30.5843C255.29 26.0489 255.59 23.6781 255.693 23.3173C255.925 22.4927 256.174 22.6988 258.09 22.2865C261.105 21.668 262.677 20.998 263.038 20.998C263.295 20.998 263.519 21.3072 263.39 21.7711C263.235 22.338 261.371 22.5442 260.392 24.1934C259.121 26.3581 256.913 34.0375 253.211 47.283L252.386 50.2208C251.218 54.3955 250.969 55.6324 252.206 55.6324C253.288 55.6324 254.362 55.117 254.62 55.117C254.877 55.117 255.083 55.4778 254.955 55.9416C254.74 56.7147 253.451 56.7147 251.158 57.5394C247.945 58.7248 246.416 60.1163 245.798 60.1163C245.334 60.1163 245.042 59.704 245.171 59.2402C245.239 58.9825 246.708 56.8694 248.89 49.0869L252.738 35.3259ZM267.118 35.3259C267.711 33.2128 268.088 31.6666 268.389 30.5843C269.66 26.0489 269.961 23.6781 270.064 23.3173C270.296 22.4927 270.545 22.6988 272.469 22.2865C275.476 21.668 277.056 20.998 277.417 20.998C277.675 20.998 277.898 21.3072 277.769 21.7711C277.606 22.338 275.742 22.5442 274.771 24.1934C273.492 26.3581 271.292 34.0375 267.582 47.283L266.757 50.2208C265.589 54.3955 265.348 55.6324 266.585 55.6324C267.668 55.6324 268.741 55.117 268.999 55.117C269.257 55.117 269.463 55.4778 269.334 55.9416C269.111 56.7147 267.822 56.7147 265.537 57.5394C262.316 58.7248 260.796 60.1163 260.177 60.1163C259.713 60.1163 259.413 59.704 259.542 59.2402C259.619 58.9825 261.079 56.8694 263.261 49.0869L267.118 35.3259Z" fill="black"/>
<path d="M14.8421 27.8183C-3.36849 47.7468 12.6946 66.4728 23.0024 73.3447C20.7118 72.4857 14.4985 69.4792 7.97015 64.3253C-3.19673 55.5095 -12.6455 13.2155 53.067 2.47821C121.889 -8.76713 156.146 22.3061 144.12 15.363C132.094 8.41991 112.767 4.62565 97.3049 4.62565C81.8431 4.62565 37.6052 2.90767 14.8421 27.8183Z" fill="#6BFECC"/>
<path d="M148.844 17.5104V8.92053L154.427 14.9334L163.447 11.927L157.434 18.3694L163.447 24.8118L153.998 23.0938L148.844 30.8247V22.2348L139.395 20.9464L148.844 17.5104Z" fill="#FFC700"/>
<path d="M275.831 86.6589V84.243H278.247V86.6589H275.831Z" fill="black"/>
<path d="M268.318 86.6589V84.243H270.734V86.6589H268.318Z" fill="black"/>
<path d="M260.804 86.6589V84.243H263.22V86.6589H260.804Z" fill="black"/>
<path d="M256.319 79.6881C255.721 79.6881 255.265 79.9285 254.952 80.4095C254.639 80.8904 254.482 81.5727 254.482 82.4563V86.659H252.125V77.7587H254.306V79.017H254.34C254.653 78.4969 254.985 78.125 255.338 77.9013C255.69 77.672 256.115 77.5574 256.613 77.5574C256.915 77.5574 257.189 77.5937 257.435 77.6664C257.687 77.7335 257.933 77.8286 258.173 77.9516L257.418 80.0488C257.295 79.9649 257.122 79.8838 256.898 79.8055C256.68 79.7272 256.487 79.6881 256.319 79.6881Z" fill="black"/>
<path d="M243.252 85.0651C243.75 85.0651 244.158 84.9533 244.477 84.7296C244.801 84.5003 245.025 84.1983 245.148 83.8236L247.497 84.1927C247.184 85.0595 246.675 85.7222 245.97 86.1808C245.266 86.6394 244.402 86.8687 243.378 86.8687C242.416 86.8687 241.605 86.6785 240.946 86.2982C240.286 85.918 239.791 85.3839 239.461 84.696C239.131 84.0026 238.966 83.1917 238.966 82.2634C238.966 81.4077 239.136 80.622 239.478 79.9062C239.824 79.1903 240.328 78.6199 240.987 78.1949C241.647 77.7699 242.433 77.5574 243.345 77.5574C244.211 77.5574 244.964 77.7419 245.601 78.111C246.244 78.4745 246.742 79.0114 247.094 79.7216C247.447 80.4263 247.623 81.2791 247.623 82.2801V83.0015H241.365C241.421 83.6614 241.614 84.1703 241.944 84.5283C242.274 84.8862 242.71 85.0651 243.252 85.0651ZM241.373 81.2819H245.274C245.218 80.6611 245.022 80.1858 244.687 79.8558C244.351 79.5259 243.907 79.3609 243.353 79.3609C242.827 79.3609 242.383 79.5315 242.019 79.8726C241.656 80.2082 241.44 80.6779 241.373 81.2819Z" fill="black"/>
<path d="M231.175 83.7984L231.209 83.8068C231.399 83.1917 231.561 82.6883 231.696 82.2969L233.306 77.7587H235.73L232.274 86.6589H230.144L226.637 77.7587H229.112L230.714 82.3053C230.887 82.803 231.041 83.3007 231.175 83.7984Z" fill="black"/>
<path d="M219.032 85.0651C219.529 85.0651 219.938 84.9533 220.256 84.7296C220.581 84.5003 220.804 84.1983 220.927 83.8236L223.276 84.1927C222.963 85.0595 222.454 85.7222 221.75 86.1808C221.045 86.6394 220.181 86.8687 219.157 86.8687C218.196 86.8687 217.385 86.6785 216.725 86.2982C216.065 85.918 215.57 85.3839 215.24 84.696C214.91 84.0026 214.745 83.1917 214.745 82.2634C214.745 81.4077 214.916 80.622 215.257 79.9062C215.604 79.1903 216.107 78.6199 216.767 78.1949C217.427 77.7699 218.212 77.5574 219.124 77.5574C219.991 77.5574 220.743 77.7419 221.38 78.111C222.024 78.4745 222.521 79.0114 222.874 79.7216C223.226 80.4263 223.402 81.2791 223.402 82.2801V83.0015H217.144C217.2 83.6614 217.393 84.1703 217.723 84.5283C218.053 84.8862 218.489 85.0651 219.032 85.0651ZM217.153 81.2819H221.053C220.997 80.6611 220.802 80.1858 220.466 79.8558C220.131 79.5259 219.686 79.3609 219.132 79.3609C218.607 79.3609 218.162 79.5315 217.799 79.8726C217.435 80.2082 217.22 80.6779 217.153 81.2819Z" fill="black"/>
<path d="M209.807 79.6881C209.208 79.6881 208.753 79.9285 208.439 80.4095C208.126 80.8904 207.97 81.5727 207.97 82.4563V86.659H205.613V77.7587H207.794V79.017H207.827C208.14 78.4969 208.473 78.125 208.825 77.9013C209.178 77.672 209.603 77.5574 210.1 77.5574C210.402 77.5574 210.676 77.5937 210.923 77.6664C211.174 77.7335 211.42 77.8286 211.661 77.9516L210.906 80.0488C210.783 79.9649 210.609 79.8838 210.386 79.8055C210.168 79.7272 209.975 79.6881 209.807 79.6881Z" fill="black"/>
<path d="M192.118 82.1543C192.118 81.2819 192.297 80.4962 192.655 79.7971C193.013 79.0981 193.53 78.55 194.207 78.153C194.884 77.7559 195.681 77.5574 196.598 77.5574C197.532 77.5574 198.34 77.7587 199.022 78.1613C199.704 78.5584 200.222 79.1065 200.574 79.8055C200.932 80.499 201.111 81.2875 201.111 82.1711C201.111 83.0882 200.932 83.9019 200.574 84.6121C200.216 85.3168 199.699 85.8704 199.022 86.2731C198.345 86.6701 197.543 86.8687 196.614 86.8687C195.686 86.8687 194.884 86.6701 194.207 86.2731C193.53 85.8704 193.013 85.314 192.655 84.6038C192.297 83.8935 192.118 83.077 192.118 82.1543ZM196.589 79.4784C196.198 79.4784 195.845 79.5874 195.532 79.8055C195.225 80.0236 194.981 80.3396 194.803 80.7534C194.624 81.1672 194.534 81.6538 194.534 82.213C194.534 82.7667 194.618 83.2504 194.786 83.6642C194.953 84.0725 195.191 84.3885 195.499 84.6121C195.812 84.8302 196.178 84.9393 196.598 84.9393C197.017 84.9393 197.383 84.8302 197.697 84.6121C198.015 84.394 198.261 84.0781 198.435 83.6642C198.608 83.2504 198.695 82.7611 198.695 82.1962C198.695 81.6538 198.611 81.1784 198.443 80.7702C198.275 80.3619 198.032 80.046 197.713 79.8223C197.4 79.593 197.025 79.4784 196.589 79.4784Z" fill="black"/>
<path d="M182.709 76.4417V79.4867H187.868V81.5587H182.709V86.6589H180.243V74.3613H188.505V76.4417H182.709Z" fill="black"/>
<path d="M164.385 84.0836H164.419C164.592 83.4685 164.709 83.0686 164.771 82.8841L166.482 77.7587H168.923L165.501 86.919C164.975 88.3115 164.469 89.2146 163.982 89.6285C163.485 90.0535 162.786 90.266 161.885 90.266C161.477 90.266 160.937 90.1905 160.266 90.0395L160.661 88.236C161.007 88.3422 161.284 88.3954 161.491 88.3954C161.776 88.3954 162.008 88.3506 162.187 88.2611C162.372 88.1717 162.54 88.0039 162.691 87.7578C162.842 87.5174 163.001 87.1566 163.169 86.6757L159.763 77.7587H162.271L164.008 82.8254C164.114 83.1273 164.24 83.5468 164.385 84.0836Z" fill="black"/>
<path d="M156.05 77.7587V79.6294H154.389V83.9663C154.389 84.2235 154.405 84.4192 154.439 84.5535C154.478 84.6821 154.542 84.7744 154.632 84.8303C154.727 84.8806 154.867 84.9058 155.051 84.9058C155.342 84.9058 155.653 84.861 155.982 84.7716L156.276 86.5919C156.019 86.6758 155.734 86.7429 155.42 86.7932C155.107 86.8435 154.791 86.8687 154.473 86.8687C153.846 86.8687 153.357 86.782 153.005 86.6087C152.652 86.4353 152.401 86.1529 152.25 85.7614C152.104 85.3644 152.031 84.8191 152.031 84.1256V79.6294H150.773V77.7587H152.031V76.1314L154.389 74.462V77.7587H156.05Z" fill="black"/>
<path d="M144.325 76.5424V74.3613H146.682V76.5424H144.325ZM144.325 86.6589V77.7587H146.682V86.6589H144.325Z" fill="black"/>
<path d="M136.879 86.6589V74.3613H139.236V86.6589H136.879Z" fill="black"/>
<path d="M132.402 86.659H130.078C129.961 86.4017 129.866 86.0746 129.793 85.6775C129.005 86.4716 128.082 86.8687 127.025 86.8687C126.443 86.8687 125.932 86.7568 125.49 86.5331C125.048 86.3094 124.707 85.9963 124.466 85.5936C124.226 85.1854 124.106 84.7212 124.106 84.2011C124.106 83.4126 124.363 82.7862 124.877 82.3221C125.392 81.8579 126.186 81.5419 127.26 81.3742C128.334 81.2064 129.089 81.0442 129.525 80.8876V80.7199C129.525 80.1998 129.396 79.8447 129.139 79.6545C128.887 79.4588 128.512 79.3609 128.015 79.3609C127.623 79.3609 127.296 79.4504 127.033 79.6293C126.77 79.8083 126.572 80.0907 126.438 80.4766L124.29 80.1494C124.525 79.2547 124.961 78.6003 125.599 78.1865C126.236 77.7671 127.089 77.5574 128.157 77.5574C129.024 77.5574 129.729 77.6692 130.271 77.8929C130.819 78.111 131.225 78.4605 131.488 78.9415C131.75 79.4224 131.882 80.0516 131.882 80.8289V84.4612C131.882 84.8862 131.913 85.2413 131.974 85.5265C132.036 85.8117 132.178 86.1892 132.402 86.659ZM127.721 82.8422C126.882 83.0099 126.463 83.4182 126.463 84.0669C126.463 84.4304 126.566 84.71 126.773 84.9057C126.98 85.1015 127.277 85.1993 127.662 85.1993C128.048 85.1993 128.403 85.1015 128.728 84.9057C128.952 84.7715 129.116 84.6317 129.223 84.4863C129.335 84.3353 129.413 84.134 129.458 83.8823C129.502 83.6307 129.525 83.2784 129.525 82.8254V82.3976C129.111 82.5486 128.51 82.6968 127.721 82.8422Z" fill="black"/>
<path d="M115.409 85.0651C115.7 85.0651 115.983 84.998 116.257 84.8638C116.536 84.724 116.768 84.4779 116.953 84.1256C117.143 83.7733 117.238 83.3007 117.238 82.7079V77.7587H119.595V86.6589H117.397V85.4929C117.084 85.9347 116.693 86.2758 116.223 86.5163C115.759 86.7512 115.25 86.8686 114.696 86.8686C113.706 86.8686 112.952 86.6058 112.431 86.0801C111.917 85.5544 111.66 84.8162 111.66 83.8655V77.7587H114.017V83.3203C114.017 83.9131 114.129 84.3521 114.352 84.6373C114.576 84.9225 114.928 85.0651 115.409 85.0651Z" fill="black"/>
<path d="M95.0364 80.5772C95.0364 79.2798 95.2796 78.1474 95.7662 77.1799C96.2583 76.2068 96.9574 75.4602 97.8633 74.9401C98.7693 74.4145 99.8262 74.1516 101.034 74.1516C102.248 74.1516 103.307 74.4145 104.213 74.9401C105.119 75.4658 105.818 76.2096 106.311 77.1715C106.803 78.1334 107.049 79.2519 107.049 80.5269C107.049 81.4497 106.912 82.2997 106.638 83.077C106.369 83.8488 105.981 84.5143 105.472 85.0735C105.796 85.3196 106.12 85.5321 106.445 85.711C106.769 85.8844 107.119 86.0298 107.493 86.1472L106.571 87.8921C106.123 87.7578 105.653 87.5453 105.161 87.2545C104.669 86.9637 104.219 86.645 103.811 86.2982C103 86.6785 102.086 86.8687 101.068 86.8687C99.8486 86.8687 98.7833 86.6058 97.8717 86.0801C96.9602 85.5489 96.2583 84.8079 95.7662 83.8572C95.2796 82.9009 95.0364 81.8076 95.0364 80.5772ZM101.034 76.2823C100.33 76.2823 99.7172 76.4641 99.1971 76.8276C98.6826 77.1855 98.2883 77.6832 98.0143 78.3207C97.7403 78.9583 97.6033 79.6881 97.6033 80.5101C97.6033 81.3322 97.7375 82.062 98.0059 82.6995C98.2744 83.3371 98.6686 83.8376 99.1887 84.2011C99.7088 84.559 100.33 84.738 101.051 84.738C101.375 84.738 101.688 84.6988 101.99 84.6205C101.795 84.4919 101.557 84.3577 101.277 84.2179C100.998 84.0725 100.732 83.9522 100.481 83.8572L101.168 82.3472C101.923 82.6101 102.709 83.0323 103.526 83.6139C103.839 83.2336 104.076 82.7778 104.239 82.2466C104.401 81.7153 104.482 81.1253 104.482 80.4766C104.482 79.6713 104.345 78.9527 104.071 78.3207C103.802 77.6832 103.408 77.1855 102.888 76.8276C102.374 76.4641 101.756 76.2823 101.034 76.2823Z" fill="black"/>
<path d="M288 66.0433L94.2983 67.3318C157.72 68.7635 284.564 71.1973 284.564 69.4793C284.564 67.7613 286.855 66.4728 288 66.0433Z" fill="#6BFECC"/>
</svg>
