<svg width="20" height="20" viewBox="0 0 20 20" fill="none" xmlns="http://www.w3.org/2000/svg">
<g clip-path="url(#clip0_8703_405)">
<path d="M5 5L11.6667 5" stroke="currentColor" stroke-width="1.5" stroke-linecap="round" stroke-linejoin="round"/>
<path d="M5 8.33334H15" stroke="currentColor" stroke-width="1.5" stroke-linecap="round" stroke-linejoin="round"/>
<path d="M10.8333 11.6667L14.9999 11.6667" stroke="currentColor" stroke-width="1.5" stroke-linecap="round" stroke-linejoin="round"/>
<path d="M10.8333 15L14.9999 15" stroke="currentColor" stroke-width="1.5" stroke-linecap="round" stroke-linejoin="round"/>
<path d="M1.66675 17.7333V2.26666C1.66675 1.93529 1.93538 1.66666 2.26675 1.66666H15.1682C15.3274 1.66666 15.48 1.72988 15.5925 1.8424L18.1577 4.40759C18.2702 4.52012 18.3334 4.67273 18.3334 4.83186V17.7333C18.3334 18.0647 18.0648 18.3333 17.7334 18.3333H2.26675C1.93538 18.3333 1.66675 18.0647 1.66675 17.7333Z" stroke="currentColor" stroke-width="1.5" stroke-linecap="round" stroke-linejoin="round"/>
<path d="M5 15V11.6667H7.5V15H5Z" stroke="currentColor" stroke-width="1.5" stroke-linecap="round" stroke-linejoin="round"/>
<path d="M15 1.66666V4.4C15 4.73137 15.2686 5 15.6 5H18.3333" stroke="currentColor" stroke-width="1.5" stroke-linecap="round" stroke-linejoin="round"/>
</g>
<defs>
<clipPath id="clip0_8703_405">
<rect width="20" height="20" fill="white"/>
</clipPath>
</defs>
</svg>
